<svg width="242" height="48" viewBox="0 0 242 48" fill="none" xmlns="http://www.w3.org/2000/svg">
<path d="M19.616 19.96C19.616 21.3253 19.296 22.5733 18.656 23.704C18.0373 24.8133 17.088 25.7093 15.808 26.392C14.5493 27.0533 13.0027 27.384 11.168 27.384H8.064V35H1.792V12.44H11.168C12.9813 12.44 14.5173 12.76 15.776 13.4C17.056 14.04 18.016 14.9253 18.656 16.056C19.296 17.1867 19.616 18.488 19.616 19.96ZM10.56 22.392C12.3307 22.392 13.216 21.5813 13.216 19.96C13.216 18.3173 12.3307 17.496 10.56 17.496H8.064V22.392H10.56ZM21.1118 26.008C21.1118 24.152 21.4424 22.5307 22.1038 21.144C22.7864 19.7573 23.7038 18.6907 24.8558 17.944C26.0291 17.1973 27.3304 16.824 28.7598 16.824C29.9971 16.824 31.0638 17.0693 31.9598 17.56C32.8558 18.0507 33.5491 18.712 34.0398 19.544V17.048H40.3118V35H34.0398V32.504C33.5491 33.336 32.8451 33.9973 31.9278 34.488C31.0318 34.9787 29.9758 35.224 28.7598 35.224C27.3304 35.224 26.0291 34.8507 24.8558 34.104C23.7038 33.3573 22.7864 32.2907 22.1038 30.904C21.4424 29.496 21.1118 27.864 21.1118 26.008ZM34.0398 26.008C34.0398 24.856 33.7198 23.9493 33.0798 23.288C32.4611 22.6267 31.6931 22.296 30.7758 22.296C29.8371 22.296 29.0584 22.6267 28.4398 23.288C27.8211 23.928 27.5118 24.8347 27.5118 26.008C27.5118 27.16 27.8211 28.0773 28.4398 28.76C29.0584 29.4213 29.8371 29.752 30.7758 29.752C31.6931 29.752 32.4611 29.4213 33.0798 28.76C33.7198 28.0987 34.0398 27.1813 34.0398 26.008ZM50.1578 19.544C50.6484 18.712 51.3418 18.0507 52.2378 17.56C53.1338 17.0693 54.1898 16.824 55.4058 16.824C56.8351 16.824 58.1258 17.1973 59.2778 17.944C60.4511 18.6907 61.3684 19.7573 62.0298 21.144C62.7124 22.5307 63.0538 24.152 63.0538 26.008C63.0538 27.864 62.7124 29.496 62.0298 30.904C61.3684 32.2907 60.4511 33.3573 59.2778 34.104C58.1258 34.8507 56.8351 35.224 55.4058 35.224C54.1898 35.224 53.1338 34.9787 52.2378 34.488C51.3631 33.9973 50.6698 33.336 50.1578 32.504V43.576H43.8858V17.048H50.1578V19.544ZM56.6858 26.008C56.6858 24.8347 56.3658 23.928 55.7258 23.288C55.1071 22.6267 54.3391 22.296 53.4218 22.296C52.5044 22.296 51.7258 22.6267 51.0858 23.288C50.4671 23.9493 50.1578 24.856 50.1578 26.008C50.1578 27.1813 50.4671 28.0987 51.0858 28.76C51.7258 29.4213 52.5044 29.752 53.4218 29.752C54.3391 29.752 55.1071 29.4213 55.7258 28.76C56.3658 28.0773 56.6858 27.16 56.6858 26.008ZM82.7878 25.816C82.7878 26.3067 82.7558 26.7973 82.6918 27.288H70.8198C70.8838 28.2693 71.1504 29.0053 71.6198 29.496C72.1104 29.9653 72.7291 30.2 73.4758 30.2C74.5211 30.2 75.2678 29.7307 75.7158 28.792H82.4038C82.1264 30.0293 81.5824 31.1387 80.7718 32.12C79.9824 33.08 78.9798 33.8373 77.7638 34.392C76.5478 34.9467 75.2038 35.224 73.7318 35.224C71.9611 35.224 70.3824 34.8507 68.9958 34.104C67.6304 33.3573 66.5531 32.2907 65.7638 30.904C64.9958 29.5173 64.6118 27.8853 64.6118 26.008C64.6118 24.1307 64.9958 22.5093 65.7638 21.144C66.5318 19.7573 67.5984 18.6907 68.9638 17.944C70.3504 17.1973 71.9398 16.824 73.7318 16.824C75.5024 16.824 77.0704 17.1867 78.4358 17.912C79.8011 18.6373 80.8678 19.6827 81.6358 21.048C82.4038 22.392 82.7878 23.9813 82.7878 25.816ZM76.3878 24.248C76.3878 23.48 76.1318 22.8827 75.6198 22.456C75.1078 22.008 74.4678 21.784 73.6998 21.784C72.9318 21.784 72.3024 21.9973 71.8118 22.424C71.3211 22.8293 71.0011 23.4373 70.8518 24.248H76.3878ZM91.6265 20.216C92.3305 19.192 93.1838 18.3813 94.1865 17.784C95.1892 17.1867 96.2665 16.888 97.4185 16.888V23.576H95.6585C94.2932 23.576 93.2798 23.8427 92.6185 24.376C91.9572 24.9093 91.6265 25.8373 91.6265 27.16V35H85.3545V17.048H91.6265V20.216ZM117.491 19.96C117.491 21.3253 117.171 22.5733 116.531 23.704C115.912 24.8133 114.963 25.7093 113.683 26.392C112.424 27.0533 110.878 27.384 109.043 27.384H105.939V35H99.667V12.44H109.043C110.856 12.44 112.392 12.76 113.651 13.4C114.931 14.04 115.891 14.9253 116.531 16.056C117.171 17.1867 117.491 18.488 117.491 19.96ZM108.435 22.392C110.206 22.392 111.091 21.5813 111.091 19.96C111.091 18.3173 110.206 17.496 108.435 17.496H105.939V22.392H108.435ZM126.283 20.216C126.987 19.192 127.84 18.3813 128.843 17.784C129.845 17.1867 130.923 16.888 132.075 16.888V23.576H130.315C128.949 23.576 127.936 23.8427 127.275 24.376C126.613 24.9093 126.283 25.8373 126.283 27.16V35H120.011V17.048H126.283V20.216ZM142.675 35.224C140.883 35.224 139.273 34.8507 137.843 34.104C136.435 33.3573 135.326 32.2907 134.515 30.904C133.705 29.5173 133.299 27.8853 133.299 26.008C133.299 24.152 133.705 22.5307 134.515 21.144C135.347 19.7573 136.467 18.6907 137.875 17.944C139.305 17.1973 140.915 16.824 142.707 16.824C144.499 16.824 146.099 17.1973 147.507 17.944C148.937 18.6907 150.057 19.7573 150.867 21.144C151.699 22.5307 152.115 24.152 152.115 26.008C152.115 27.864 151.699 29.496 150.867 30.904C150.057 32.2907 148.937 33.3573 147.507 34.104C146.078 34.8507 144.467 35.224 142.675 35.224ZM142.675 29.784C143.55 29.784 144.275 29.464 144.851 28.824C145.449 28.1627 145.747 27.224 145.747 26.008C145.747 24.792 145.449 23.864 144.851 23.224C144.275 22.584 143.561 22.264 142.707 22.264C141.854 22.264 141.139 22.584 140.563 23.224C139.987 23.864 139.699 24.792 139.699 26.008C139.699 27.2453 139.977 28.184 140.531 28.824C141.086 29.464 141.801 29.784 142.675 29.784ZM153.643 26.008C153.643 24.152 154.027 22.5307 154.795 21.144C155.563 19.7573 156.63 18.6907 157.995 17.944C159.382 17.1973 160.96 16.824 162.731 16.824C165.014 16.824 166.934 17.4533 168.491 18.712C170.048 19.9493 171.051 21.688 171.499 23.928H164.843C164.459 22.7547 163.712 22.168 162.603 22.168C161.814 22.168 161.184 22.4987 160.715 23.16C160.267 23.8 160.043 24.7493 160.043 26.008C160.043 27.2667 160.267 28.2267 160.715 28.888C161.184 29.5493 161.814 29.88 162.603 29.88C163.734 29.88 164.48 29.2933 164.843 28.12H171.499C171.051 30.3387 170.048 32.0773 168.491 33.336C166.934 34.5947 165.014 35.224 162.731 35.224C160.96 35.224 159.382 34.8507 157.995 34.104C156.63 33.3573 155.563 32.2907 154.795 30.904C154.027 29.5173 153.643 27.8853 153.643 26.008ZM191.257 25.816C191.257 26.3067 191.225 26.7973 191.161 27.288H179.289C179.353 28.2693 179.619 29.0053 180.089 29.496C180.579 29.9653 181.198 30.2 181.945 30.2C182.99 30.2 183.737 29.7307 184.185 28.792H190.873C190.595 30.0293 190.051 31.1387 189.241 32.12C188.451 33.08 187.449 33.8373 186.233 34.392C185.017 34.9467 183.673 35.224 182.201 35.224C180.43 35.224 178.851 34.8507 177.465 34.104C176.099 33.3573 175.022 32.2907 174.233 30.904C173.465 29.5173 173.081 27.8853 173.081 26.008C173.081 24.1307 173.465 22.5093 174.233 21.144C175.001 19.7573 176.067 18.6907 177.433 17.944C178.819 17.1973 180.409 16.824 182.201 16.824C183.971 16.824 185.539 17.1867 186.905 17.912C188.27 18.6373 189.337 19.6827 190.105 21.048C190.873 22.392 191.257 23.9813 191.257 25.816ZM184.857 24.248C184.857 23.48 184.601 22.8827 184.089 22.456C183.577 22.008 182.937 21.784 182.169 21.784C181.401 21.784 180.771 21.9973 180.281 22.424C179.79 22.8293 179.47 23.4373 179.321 24.248H184.857ZM201.471 35.224C199.85 35.224 198.399 34.9573 197.119 34.424C195.861 33.8693 194.858 33.1227 194.111 32.184C193.386 31.224 192.981 30.1467 192.895 28.952H198.975C199.061 29.528 199.327 29.976 199.775 30.296C200.223 30.616 200.778 30.776 201.439 30.776C201.951 30.776 202.357 30.6693 202.655 30.456C202.954 30.2427 203.103 29.9653 203.103 29.624C203.103 29.176 202.858 28.8453 202.367 28.632C201.877 28.4187 201.066 28.184 199.935 27.928C198.655 27.672 197.589 27.384 196.735 27.064C195.882 26.744 195.135 26.2213 194.495 25.496C193.877 24.7707 193.567 23.7893 193.567 22.552C193.567 21.4853 193.855 20.5253 194.431 19.672C195.007 18.7973 195.85 18.104 196.959 17.592C198.09 17.08 199.445 16.824 201.023 16.824C203.37 16.824 205.215 17.4 206.559 18.552C207.903 19.704 208.682 21.2187 208.895 23.096H203.231C203.125 22.52 202.869 22.0827 202.463 21.784C202.079 21.464 201.557 21.304 200.895 21.304C200.383 21.304 199.989 21.4 199.711 21.592C199.455 21.784 199.327 22.0507 199.327 22.392C199.327 22.8187 199.573 23.1493 200.063 23.384C200.554 23.5973 201.343 23.8213 202.431 24.056C203.733 24.3333 204.81 24.6427 205.663 24.984C206.538 25.3253 207.295 25.88 207.935 26.648C208.597 27.3947 208.927 28.4187 208.927 29.72C208.927 30.7653 208.618 31.704 207.999 32.536C207.402 33.368 206.538 34.0293 205.407 34.52C204.298 34.9893 202.986 35.224 201.471 35.224ZM219.659 35.224C218.037 35.224 216.587 34.9573 215.307 34.424C214.048 33.8693 213.045 33.1227 212.299 32.184C211.573 31.224 211.168 30.1467 211.083 28.952H217.163C217.248 29.528 217.515 29.976 217.963 30.296C218.411 30.616 218.965 30.776 219.627 30.776C220.139 30.776 220.544 30.6693 220.843 30.456C221.141 30.2427 221.291 29.9653 221.291 29.624C221.291 29.176 221.045 28.8453 220.555 28.632C220.064 28.4187 219.253 28.184 218.123 27.928C216.843 27.672 215.776 27.384 214.923 27.064C214.069 26.744 213.323 26.2213 212.683 25.496C212.064 24.7707 211.755 23.7893 211.755 22.552C211.755 21.4853 212.043 20.5253 212.619 19.672C213.195 18.7973 214.037 18.104 215.147 17.592C216.277 17.08 217.632 16.824 219.211 16.824C221.557 16.824 223.403 17.4 224.747 18.552C226.091 19.704 226.869 21.2187 227.083 23.096H221.419C221.312 22.52 221.056 22.0827 220.651 21.784C220.267 21.464 219.744 21.304 219.083 21.304C218.571 21.304 218.176 21.4 217.899 21.592C217.643 21.784 217.515 22.0507 217.515 22.392C217.515 22.8187 217.76 23.1493 218.251 23.384C218.741 23.5973 219.531 23.8213 220.619 24.056C221.92 24.3333 222.997 24.6427 223.851 24.984C224.725 25.3253 225.483 25.88 226.123 26.648C226.784 27.3947 227.115 28.4187 227.115 29.72C227.115 30.7653 226.805 31.704 226.187 32.536C225.589 33.368 224.725 34.0293 223.595 34.52C222.485 34.9893 221.173 35.224 219.659 35.224Z" fill="black"/>
<path d="M237.361 30.1225C237.694 30.315 237.694 30.7961 237.361 30.9886L232.028 34.0678C231.694 34.2602 231.278 34.0197 231.278 33.6348L231.278 27.4764C231.278 27.0915 231.694 26.8509 232.028 27.0433L237.361 30.1225Z" fill="#22C55E"/>
<path d="M240.55 30.1225C240.883 30.315 240.883 30.7961 240.55 30.9886L235.217 34.0678C234.883 34.2602 234.467 34.0197 234.467 33.6348L234.467 27.4764C234.467 27.0915 234.883 26.8509 235.217 27.0433L240.55 30.1225Z" fill="#22C55E" fill-opacity="0.6"/>
</svg>
